# xmcd
#
# Track frame offsets:
#	150
#	15965
#	32573
#	52593
#	70235
#	86010
#	106058
#	117771
#	130886
#	145848
#	171584
#	187581
#	201977
#
# Disc length: 2957 seconds
# Revision: 0
# Processed by: cddbd v1.5.2PL0 Copyright (c) Steve Scherf et al.
# Submitted via: dBpowerAMP V12.0
#
DISCID=a10b8b0d
DTITLE=Kathy Kallick Band - Horrible World
DYEAR=2018
DGENRE=Bluegrass
TTITLE0=Ride Away
TTITLE1=Pockets Full of Rain
TTITLE2=(It's a) Horrible World
TTITLE3=Cascade Blues
TTITLE4=Dark Is the Night
TTITLE5=Solid Gone
TTITLE6=My Honey Lou
TTITLE7=Boot Heel Drag
TTITLE8=The Sunday Road
TTITLE9=Cotten Eyed Joe
TTITLE10=Nothin' So Bad (It Can't Get Worse)
TTITLE11=Edale
TTITLE12=This Beautiful World
EXTD=
EXTT0=
EXTT1=
EXTT2=
EXTT3=
EXTT4=
EXTT5=
EXTT6=
EXTT7=
EXTT8=
EXTT9=
EXTT10=
EXTT11=
EXTT12=
PLAYORDER=
